<mxfile host="app.diagrams.net" modified="2023-08-16T10:51:29.456Z" agent="Mozilla/5.0 (Macintosh; Intel Mac OS X 10.15; rv:109.0) Gecko/20100101 Firefox/115.0" etag="SyJpE9dgNth_8sYbUub2" version="21.6.8" type="device">
  <diagram name="Page-1" id="yAjNQ9E4actKaoWwqaCw">
    <mxGraphModel dx="954" dy="589" grid="1" gridSize="10" guides="1" tooltips="1" connect="1" arrows="1" fold="1" page="1" pageScale="1" pageWidth="850" pageHeight="1100" math="0" shadow="0">
      <root>
        <mxCell id="0" />
        <mxCell id="1" parent="0" />
        <mxCell id="AI_7H1k_A0fMzw3C3uXc-13" value="" style="rounded=0;whiteSpace=wrap;html=1;fillColor=none;" parent="1" vertex="1">
          <mxGeometry x="40" y="20" width="320" height="180" as="geometry" />
        </mxCell>
        <mxCell id="AI_7H1k_A0fMzw3C3uXc-1" value="&lt;p style=&quot;line-height: 120%;&quot;&gt;&lt;/p&gt;&lt;div style=&quot;line-height: 150%;&quot;&gt;PHP /&lt;br&gt;&lt;/div&gt;&lt;div style=&quot;line-height: 150%;&quot;&gt;Composer&lt;br&gt;&lt;/div&gt;&lt;p style=&quot;line-height: 150%;&quot;&gt;&lt;/p&gt;" style="rounded=1;whiteSpace=wrap;html=1;" parent="1" vertex="1">
          <mxGeometry x="60" y="120" width="80" height="60" as="geometry" />
        </mxCell>
        <mxCell id="AI_7H1k_A0fMzw3C3uXc-2" value="SQL Database" style="rounded=1;whiteSpace=wrap;html=1;" parent="1" vertex="1">
          <mxGeometry x="400" y="20" width="120" height="30" as="geometry" />
        </mxCell>
        <mxCell id="AI_7H1k_A0fMzw3C3uXc-3" value="&lt;p style=&quot;line-height: 150%;&quot;&gt;Node.js /&lt;br&gt;NPM&lt;/p&gt;" style="rounded=1;whiteSpace=wrap;html=1;" parent="1" vertex="1">
          <mxGeometry x="160" y="120" width="70" height="60" as="geometry" />
        </mxCell>
        <mxCell id="AI_7H1k_A0fMzw3C3uXc-4" value="Web Server" style="rounded=1;whiteSpace=wrap;html=1;" parent="1" vertex="1">
          <mxGeometry x="250" y="120" width="90" height="60" as="geometry" />
        </mxCell>
        <mxCell id="AI_7H1k_A0fMzw3C3uXc-5" value="Search Engine" style="rounded=1;whiteSpace=wrap;html=1;fillStyle=auto;gradientColor=none;glass=0;shadow=0;dashed=1;" parent="1" vertex="1">
          <mxGeometry x="400" y="70" width="120" height="30" as="geometry" />
        </mxCell>
        <mxCell id="AI_7H1k_A0fMzw3C3uXc-6" value="Message Queue" style="rounded=1;whiteSpace=wrap;html=1;fillStyle=auto;gradientColor=none;glass=0;shadow=0;dashed=1;" parent="1" vertex="1">
          <mxGeometry x="400" y="170" width="120" height="30" as="geometry" />
        </mxCell>
        <mxCell id="WBA5FNvlO0xAGeJAdvBo-2" style="edgeStyle=orthogonalEdgeStyle;rounded=0;orthogonalLoop=1;jettySize=auto;html=1;exitX=1;exitY=0.5;exitDx=0;exitDy=0;entryX=0;entryY=0.5;entryDx=0;entryDy=0;endArrow=none;endFill=0;" parent="1" source="AI_7H1k_A0fMzw3C3uXc-7" target="AI_7H1k_A0fMzw3C3uXc-2" edge="1">
          <mxGeometry relative="1" as="geometry">
            <Array as="points">
              <mxPoint x="380" y="70" />
              <mxPoint x="380" y="35" />
            </Array>
          </mxGeometry>
        </mxCell>
        <mxCell id="WBA5FNvlO0xAGeJAdvBo-3" style="edgeStyle=orthogonalEdgeStyle;rounded=0;orthogonalLoop=1;jettySize=auto;html=1;exitX=1;exitY=0.5;exitDx=0;exitDy=0;entryX=0;entryY=0.5;entryDx=0;entryDy=0;dashed=1;endArrow=none;endFill=0;" parent="1" source="AI_7H1k_A0fMzw3C3uXc-7" target="AI_7H1k_A0fMzw3C3uXc-5" edge="1">
          <mxGeometry relative="1" as="geometry">
            <Array as="points">
              <mxPoint x="380" y="70" />
              <mxPoint x="380" y="85" />
            </Array>
          </mxGeometry>
        </mxCell>
        <mxCell id="WBA5FNvlO0xAGeJAdvBo-5" style="edgeStyle=orthogonalEdgeStyle;rounded=0;orthogonalLoop=1;jettySize=auto;html=1;exitX=1;exitY=0.5;exitDx=0;exitDy=0;entryX=0;entryY=0.5;entryDx=0;entryDy=0;dashed=1;endArrow=none;endFill=0;" parent="1" source="AI_7H1k_A0fMzw3C3uXc-7" target="AI_7H1k_A0fMzw3C3uXc-17" edge="1">
          <mxGeometry relative="1" as="geometry">
            <Array as="points">
              <mxPoint x="380" y="70" />
              <mxPoint x="380" y="135" />
            </Array>
          </mxGeometry>
        </mxCell>
        <mxCell id="WBA5FNvlO0xAGeJAdvBo-6" style="edgeStyle=orthogonalEdgeStyle;rounded=0;orthogonalLoop=1;jettySize=auto;html=1;exitX=1;exitY=0.5;exitDx=0;exitDy=0;entryX=0;entryY=0.5;entryDx=0;entryDy=0;endArrow=none;endFill=0;dashed=1;" parent="1" source="AI_7H1k_A0fMzw3C3uXc-7" target="AI_7H1k_A0fMzw3C3uXc-6" edge="1">
          <mxGeometry relative="1" as="geometry">
            <Array as="points">
              <mxPoint x="380" y="70" />
              <mxPoint x="380" y="185" />
            </Array>
          </mxGeometry>
        </mxCell>
        <mxCell id="AI_7H1k_A0fMzw3C3uXc-7" value="&lt;div&gt;Shopware-Platform&lt;/div&gt;" style="rounded=0;whiteSpace=wrap;html=1;shadow=0;strokeWidth=1;perimeterSpacing=0;" parent="1" vertex="1">
          <mxGeometry x="60" y="40" width="280" height="60" as="geometry" />
        </mxCell>
        <mxCell id="AI_7H1k_A0fMzw3C3uXc-17" value="Cache" style="rounded=1;whiteSpace=wrap;html=1;fillStyle=auto;gradientColor=none;glass=0;shadow=0;dashed=1;" parent="1" vertex="1">
          <mxGeometry x="400" y="120" width="120" height="30" as="geometry" />
        </mxCell>
      </root>
    </mxGraphModel>
  </diagram>
</mxfile>
